<svg width="16" height="16" viewBox="0 0 16 16" fill="none" xmlns="http://www.w3.org/2000/svg">
<path d="M3.35087 8.69919L10.9971 8.69919L7.65657 12.1295C7.38961 12.4037 7.38961 12.8535 7.65657 13.1277C7.7199 13.1928 7.79512 13.2445 7.87793 13.2798C7.96074 13.3151 8.04951 13.3333 8.13917 13.3333C8.22882 13.3333 8.31759 13.3151 8.4004 13.2798C8.48321 13.2445 8.55843 13.1928 8.62176 13.1277L13.1328 8.49534C13.1963 8.43031 13.2466 8.35306 13.281 8.26803C13.3153 8.18299 13.333 8.09183 13.333 7.99977C13.333 7.90771 13.3153 7.81655 13.281 7.73151C13.2466 7.64648 13.1963 7.56923 13.1328 7.5042L8.62176 2.87185C8.55839 2.80678 8.48315 2.75515 8.40035 2.71993C8.31754 2.68471 8.22879 2.66658 8.13917 2.66658C8.04954 2.66658 7.96079 2.68471 7.87799 2.71993C7.79519 2.75515 7.71995 2.80678 7.65657 2.87185C7.5932 2.93693 7.54293 3.01419 7.50863 3.09922C7.47433 3.18425 7.45668 3.27539 7.45668 3.36743C7.45668 3.45946 7.47433 3.55059 7.50863 3.63562C7.54293 3.72065 7.5932 3.79792 7.65657 3.86299L10.9971 7.29332L3.35087 7.29332C2.97438 7.29332 2.66634 7.60964 2.66634 7.99625C2.66634 8.38287 2.97438 8.69919 3.35087 8.69919Z" fill="#212121"/>
</svg>
