<svg width="28" height="28" viewBox="0 0 28 28" fill="none" xmlns="http://www.w3.org/2000/svg">
<path d="M3.50034 22.1665H24.5003C24.713 22.1659 24.9214 22.1072 25.1031 21.9969C25.2849 21.8866 25.4331 21.7289 25.5319 21.5406C25.6307 21.3523 25.6762 21.1406 25.6636 20.9284C25.651 20.7161 25.5808 20.5113 25.4605 20.336L14.9605 5.16938C14.5253 4.54055 13.4777 4.54055 13.0413 5.16938L2.54134 20.336C2.41981 20.511 2.34853 20.7159 2.33527 20.9285C2.32201 21.1411 2.36726 21.3532 2.46611 21.5419C2.56496 21.7306 2.71363 21.8886 2.89597 21.9987C3.07831 22.1088 3.28733 22.1669 3.50034 22.1665Z" fill="#F1F1F1"/>
</svg>
